
******** Battle.of.Britain.1969.DVDRiP.XViD.[12]-Multi_Sub-Zen_Bud *********

Format                           : AVI
File size                        : 1.62 GiB
Duration                         : 2h 6mn
Overall bit rate                 : 1 833 Kbps

Video

Format                           : MPEG-4 Visual
Codec ID/Hint                    : XviD
Duration                         : 2h 6mn
Bit rate                         : 1 692 Kbps
Width                            : 718 pixels
Height                           : 434 pixels
Display aspect ratio             : 2.35:1
Stream size                      : 1.50 GiB (92%)
Writing library                  : XviD 1.1.2 (UTC 2006-11-01)

Audio

Format                           : MPEG Audio
Codec ID/Hint                    : MP3
Duration                         : 2h 6mn
Bit rate                         : 128 Kbps
Channel(s)                       : 2 channels
Sampling rate                    : 48.0 KHz
Stream size                      : 116 MiB (7%)
Writing library                  : LAME3.98
Language                         : English

Text #1
Language                         : English

Text #2
Language                         : Swedish

Text #3
Language                         : Finnish

Text #4
Language                         : Norwegian

Text #5
Language                         : Danish

Text #6
Language                         : Portuguese

Text #7
Language                         : Polish

Text #8
Language                         : Greek

Text #9
Language                         : Czech

Text #10
Language                         : Romanian

 
http://en.wikipedia.org/wiki/Battle_of_Britain_%28film%29